<svg xmlns="http://www.w3.org/2000/svg" xmlns:xlink="http://www.w3.org/1999/xlink" viewBox="0 0 94.23 94.23"><defs><style>.cls-1{fill:#fff;}.cls-2{fill:url(#linear-gradient);}</style><linearGradient id="linear-gradient" x1="44.19" y1="162.81" x2="54.52" y2="-116.65" gradientUnits="userSpaceOnUse"><stop offset="0" stop-color="#3463cc"/><stop offset="1" stop-color="#45ccee"/></linearGradient></defs><title>Asset 2</title><g id="Layer_2" data-name="Layer 2"><g id="OBJECTS"><path class="cls-1" d="M47.12,94.23A47.12,47.12,0,1,1,94.23,47.12,47.17,47.17,0,0,1,47.12,94.23Zm0-91.57A44.46,44.46,0,1,0,91.57,47.12,44.5,44.5,0,0,0,47.12,2.66Z"/><path class="cls-1" d="M88.64,47.12A41.53,41.53,0,0,1,12,69.25,41.53,41.53,0,1,1,88.64,47.12Z"/><path class="cls-2" d="M83.85,49.78V66.49A41.53,41.53,0,0,1,12,69.25V57.76h18.1V67.88h5.86V28.48H49.25V19.7h3.19v8.78h6.92V59.36h5.86V49.78Z"/></g></g></svg>