<svg xmlns="http://www.w3.org/2000/svg" xmlns:xlink="http://www.w3.org/1999/xlink" viewBox="0 0 244.1 383.31"><defs><style>.cls-1{fill:url(#linear-gradient);}.cls-2{fill:url(#linear-gradient-2);}.cls-3{fill:url(#linear-gradient-3);}.cls-4{fill:url(#linear-gradient-4);}</style><linearGradient id="linear-gradient" x1="122.18" y1="263.46" x2="122.18" y2="24.69" gradientUnits="userSpaceOnUse"><stop offset="0" stop-color="#3fc3e5"/><stop offset="1" stop-color="#bbefff"/></linearGradient><linearGradient id="linear-gradient-2" x1="122.18" y1="113.33" x2="122.18" y2="214.9" gradientUnits="userSpaceOnUse"><stop offset="0" stop-color="#d6f4ff"/><stop offset="1" stop-color="#c7fcff" stop-opacity="0"/></linearGradient><linearGradient id="linear-gradient-3" x1="127.44" y1="99" x2="123.26" y2="235.49" gradientUnits="userSpaceOnUse"><stop offset="0" stop-color="#3463cc"/><stop offset="1" stop-color="#45ccee"/></linearGradient><linearGradient id="linear-gradient-4" x1="122.18" y1="109.34" x2="122.18" y2="301.85" xlink:href="#linear-gradient-3"/></defs><title>Asset 3</title><g id="Layer_2" data-name="Layer 2"><g id="OBJECTS"><rect class="cls-1" x="0.27" width="243.83" height="383.31"/><path class="cls-2" d="M.27,167.7s10.38-18.37,22.09-4.53c0,0,1.6-30.87,23.69-19.69,0,0,4-14.38,17.3-16.51s25.56,26.09,25.56,26.09,1.06-12.78,11.18-14.91,16,9,16,9-4.79-22.89,11.71-30.34c15.89-7.18,30.35,13.31,30.35,13.31s1.59-14.91,10.64-18.1,12.78,20.76,12.78,20.76,12.78-9.58,12.78,6.92c0,0,8-23.43,25-22.89s16,34.6,16,34.6,3.2-5.68,8.79-1v67.79H.27Z"/><polygon class="cls-3" points="0.27 188.99 20.23 188.99 20.23 143.48 77.73 143.48 77.73 199.91 101.68 199.91 101.68 163.71 145.34 163.71 145.34 206.3 178.88 206.3 178.88 143.48 226.79 143.48 226.79 187.66 244.1 187.66 244.1 352.92 0 352.92 0.27 188.99"/><polygon class="cls-4" points="244.1 203.9 200.17 203.9 200.17 257.94 185.8 257.94 185.8 157.85 173.02 157.85 173.02 121.65 166.1 121.65 166.1 156.78 133.09 156.78 133.09 167.43 121.92 167.43 121.92 249.42 111.27 249.42 111.27 189.79 90.5 189.79 90.5 182.87 55.9 182.87 55.9 189.79 43.12 189.79 43.12 246.76 31.94 246.76 31.94 220.67 0.27 220.67 0.27 383.05 243.83 383.05 244.1 203.9"/></g></g></svg>